<svg width="1483" height="512" viewBox="0 0 1483 512" fill="none" xmlns="http://www.w3.org/2000/svg">
<path d="M190.4 126.543C201.451 123.589 212.725 122 224 122C235.275 122 246.549 123.589 257.6 126.543C324.96 144.549 384 213.275 384 282H64C64 213.275 123.04 144.549 190.4 126.543Z" fill="#262626"/>
<path d="M224 96C201.333 96 192.155 112.667 190.4 121C198.822 118.222 212.333 116 224 116C235.667 116 249.178 117.111 257.6 119.333C255.844 111.556 246.667 96 224 96Z" fill="#262626"/>
<path d="M202.333 149.333C172.333 159.333 142.333 176 124 201" stroke="#E6E6E6" stroke-width="16" stroke-linecap="round"/>
<path d="M192.5 356C178.5 332.5 175 321 89 292H124C190.5 302 227.5 334 258.5 332.5C290.283 330.962 305 302 339 292H359C319.5 313.5 302.5 337 289 371L264 396C235.5 392 206.5 379.5 192.5 356Z" fill="#262626"/>
<path d="M301 368C291 378 275 394 261 408C262 411 266 416 269 416C272 416 309 379 309 376C309 373 304 369 301 368Z" fill="#262626"/>
<path d="M899.15 406.92C901.614 406.92 903.742 407.336 905.534 408.168C907.326 408.968 908.686 410.136 909.614 411.672C910.574 413.176 911.054 414.984 911.054 417.096C911.054 419.208 910.574 421.032 909.614 422.568C908.686 424.104 907.326 425.288 905.534 426.12C903.742 426.92 901.614 427.32 899.15 427.32H890.558V441H887.198V406.92H899.15ZM899.15 424.104C901.934 424.104 904.03 423.512 905.438 422.328C906.878 421.144 907.598 419.4 907.598 417.096C907.598 414.792 906.878 413.064 905.438 411.912C904.03 410.728 901.934 410.136 899.15 410.136H890.558V424.104H899.15ZM919.829 415.56L920.021 422.712L919.589 422.28C919.973 420.008 920.709 418.328 921.797 417.24C922.885 416.12 924.405 415.56 926.357 415.56H928.565V418.44H926.357C925.045 418.44 923.925 418.744 922.997 419.352C922.101 419.928 921.413 420.776 920.933 421.896C920.485 422.984 920.261 424.296 920.261 425.832V441H917.045V415.56H919.829ZM938.027 415.56V441H934.811V415.56H938.027ZM938.123 407.304V411.528H934.715V407.304H938.123ZM956.48 441H952.4L943.088 415.56H946.544L954.464 437.64L962.384 415.56H965.84L956.48 441ZM968.72 423.048C969.2 420.552 970.336 418.584 972.128 417.144C973.92 415.704 976.16 414.984 978.848 414.984C982.08 414.984 984.544 415.896 986.24 417.72C987.968 419.544 988.832 422.184 988.832 425.64V436.104C988.832 436.776 988.976 437.272 989.264 437.592C989.552 437.912 989.984 438.072 990.56 438.072H991.568V441H990.08H989.84C989.008 440.968 988.272 440.824 987.632 440.568C986.992 440.28 986.496 439.816 986.144 439.176C985.792 438.536 985.616 437.672 985.616 436.584C984.944 438.056 983.856 439.256 982.352 440.184C980.88 441.08 979.152 441.544 977.168 441.576C974.576 441.576 972.448 440.936 970.784 439.656C969.12 438.344 968.288 436.616 968.288 434.472C968.288 432.872 968.672 431.592 969.44 430.632C970.24 429.64 971.296 428.872 972.608 428.328C973.92 427.784 975.584 427.32 977.6 426.936L985.568 425.448C985.536 422.92 984.976 421.064 983.888 419.88C982.8 418.696 981.12 418.104 978.848 418.104C977.056 418.104 975.584 418.552 974.432 419.448C973.28 420.344 972.528 421.64 972.176 423.336L968.72 423.048ZM971.696 434.472C971.696 435.752 972.208 436.792 973.232 437.592C974.288 438.36 975.776 438.712 977.696 438.648C979.232 438.648 980.608 438.28 981.824 437.544C983.04 436.808 983.984 435.768 984.656 434.424C985.36 433.048 985.696 431.432 985.664 429.576V428.328L979.136 429.48L978.128 429.672C976.688 429.928 975.52 430.2 974.624 430.488C973.76 430.776 973.056 431.24 972.512 431.88C971.968 432.52 971.696 433.384 971.696 434.472ZM1000.81 409.8V434.76C1000.81 435.848 1001.08 436.68 1001.63 437.256C1002.17 437.832 1002.97 438.12 1004.03 438.12H1007.39V441H1004.03C1001.98 441 1000.39 440.456 999.274 439.368C998.154 438.248 997.594 436.712 997.594 434.76V409.8H1000.81ZM1007.43 415.56V418.488H993.658V415.56H1007.43ZM1016.4 406.92V429.96L1029.94 415.56H1034.35L1023.94 426.408L1034.98 441H1030.99L1021.73 428.616L1016.4 434.184V441H1013.19V406.92H1016.4ZM1048.57 441.576C1046.27 441.576 1044.25 441.032 1042.52 439.944C1040.83 438.856 1039.51 437.32 1038.59 435.336C1037.66 433.32 1037.19 430.968 1037.19 428.28C1037.19 425.592 1037.66 423.256 1038.59 421.272C1039.51 419.256 1040.84 417.704 1042.57 416.616C1044.3 415.528 1046.3 414.984 1048.57 414.984C1050.87 414.984 1052.87 415.528 1054.57 416.616C1056.3 417.704 1057.63 419.256 1058.55 421.272C1059.48 423.256 1059.95 425.592 1059.95 428.28C1059.95 430.968 1059.48 433.32 1058.55 435.336C1057.63 437.32 1056.3 438.856 1054.57 439.944C1052.84 441.032 1050.84 441.576 1048.57 441.576ZM1048.57 438.456C1051.07 438.456 1053.02 437.56 1054.43 435.768C1055.83 433.944 1056.54 431.448 1056.54 428.28C1056.54 425.112 1055.83 422.632 1054.43 420.84C1053.02 419.016 1051.07 418.104 1048.57 418.104C1046.07 418.104 1044.12 419.016 1042.71 420.84C1041.31 422.632 1040.6 425.112 1040.6 428.28C1040.6 431.448 1041.31 433.944 1042.71 435.768C1044.12 437.56 1046.07 438.456 1048.57 438.456ZM1083 423.912C1082.62 422.12 1081.79 420.712 1080.51 419.688C1079.23 418.632 1077.71 418.104 1075.95 418.104C1073.45 418.104 1071.5 419.016 1070.09 420.84C1068.68 422.632 1067.98 425.112 1067.98 428.28C1067.98 431.448 1068.68 433.944 1070.09 435.768C1071.5 437.56 1073.45 438.456 1075.95 438.456C1077.77 438.456 1079.34 437.896 1080.65 436.776C1081.96 435.656 1082.81 434.104 1083.19 432.12L1086.65 432.36C1086.33 434.216 1085.67 435.848 1084.68 437.256C1083.69 438.632 1082.44 439.704 1080.94 440.472C1079.43 441.208 1077.77 441.576 1075.95 441.576C1073.61 441.576 1071.58 441.016 1069.85 439.896C1068.15 438.776 1066.84 437.224 1065.91 435.24C1065.02 433.224 1064.57 430.904 1064.57 428.28C1064.57 425.656 1065.02 423.352 1065.91 421.368C1066.84 419.352 1068.15 417.784 1069.85 416.664C1071.58 415.544 1073.61 414.984 1075.95 414.984C1077.71 414.984 1079.32 415.352 1080.79 416.088C1082.3 416.792 1083.53 417.8 1084.49 419.112C1085.48 420.424 1086.12 421.96 1086.41 423.72L1083 423.912ZM1095.48 406.92V421.608L1095 421.128C1095.42 419.08 1096.39 417.544 1097.93 416.52C1099.5 415.496 1101.32 414.984 1103.4 414.984C1106.15 414.984 1108.26 415.88 1109.74 417.672C1111.21 419.464 1111.94 421.784 1111.94 424.632V441H1108.68V425.976C1108.68 424.28 1108.47 422.856 1108.06 421.704C1107.67 420.52 1107.03 419.624 1106.14 419.016C1105.24 418.408 1104.1 418.104 1102.73 418.104C1100.49 418.104 1098.71 418.808 1097.4 420.216C1096.12 421.592 1095.48 423.512 1095.48 425.976V441H1092.26V406.92H1095.48ZM1137.11 406.92C1138.32 406.28 1139.64 406.008 1141.04 406.104C1142.52 406.2 1143.84 406.68 1145.03 407.544C1146.21 408.376 1147.08 409.464 1147.62 410.808C1148.16 412.12 1148.26 413.544 1147.91 415.08C1147.59 416.488 1146.87 417.848 1145.75 419.16C1144.66 420.44 1143.22 421.656 1141.43 422.808L1149.97 433.656C1150.52 432.888 1150.93 431.88 1151.22 430.632C1151.54 429.384 1151.68 428.104 1151.65 426.792L1155.11 427.128C1155.04 428.856 1154.72 430.536 1154.15 432.168C1153.6 433.768 1152.9 435.112 1152.04 436.2L1155.97 441H1151.99L1149.97 438.456C1148.95 439.448 1147.68 440.216 1146.18 440.76C1144.71 441.304 1143.11 441.576 1141.38 441.576C1139.14 441.576 1137.16 441.208 1135.43 440.472C1133.7 439.704 1132.34 438.616 1131.35 437.208C1130.39 435.8 1129.91 434.104 1129.91 432.12C1129.91 430.168 1130.39 428.472 1131.35 427.032C1132.31 425.592 1133.86 424.12 1136 422.616C1136.29 422.424 1136.56 422.248 1136.82 422.088L1136.34 421.464C1135.25 419.992 1134.44 418.648 1133.89 417.432C1133.38 416.184 1133.12 414.936 1133.12 413.688C1133.12 412.12 1133.48 410.76 1134.18 409.608C1134.92 408.424 1135.89 407.528 1137.11 406.92ZM1145.08 437.88C1146.2 437.432 1147.09 436.808 1147.76 436.008L1138.79 424.632C1137.03 425.784 1135.67 426.952 1134.71 428.136C1133.78 429.288 1133.32 430.616 1133.32 432.12C1133.32 433.432 1133.65 434.568 1134.32 435.528C1135.03 436.488 1135.99 437.224 1137.2 437.736C1138.42 438.248 1139.81 438.504 1141.38 438.504C1142.72 438.504 1143.96 438.296 1145.08 437.88ZM1137.16 416.712C1137.67 417.736 1138.45 418.936 1139.51 420.312C1141.24 419.352 1142.55 418.344 1143.44 417.288C1144.37 416.2 1144.84 415.096 1144.84 413.976C1144.84 412.664 1144.47 411.576 1143.73 410.712C1143 409.848 1142.04 409.4 1140.85 409.368C1139.57 409.336 1138.52 409.736 1137.68 410.568C1136.85 411.4 1136.44 412.472 1136.44 413.784C1136.44 414.68 1136.68 415.656 1137.16 416.712ZM1200.1 429.576C1199.46 433.352 1197.97 436.328 1195.64 438.504C1193.3 440.68 1190.29 441.768 1186.61 441.768C1183.51 441.768 1180.81 441.016 1178.5 439.512C1176.23 437.976 1174.49 435.864 1173.27 433.176C1172.05 430.488 1171.45 427.432 1171.45 424.008C1171.45 420.584 1172.05 417.512 1173.27 414.792C1174.49 412.072 1176.23 409.96 1178.5 408.456C1180.81 406.92 1183.51 406.152 1186.61 406.152C1190.04 406.152 1192.9 407.176 1195.21 409.224C1197.51 411.24 1199.05 414.024 1199.81 417.576L1196.26 417.816C1195.72 415.16 1194.6 413.096 1192.9 411.624C1191.21 410.152 1189.11 409.416 1186.61 409.416C1184.09 409.416 1181.94 410.056 1180.18 411.336C1178.45 412.584 1177.14 414.312 1176.25 416.52C1175.38 418.728 1174.95 421.224 1174.95 424.008C1174.95 426.792 1175.38 429.272 1176.25 431.448C1177.14 433.624 1178.47 435.352 1180.23 436.632C1181.99 437.88 1184.12 438.504 1186.61 438.504C1189.24 438.504 1191.41 437.72 1193.14 436.152C1194.87 434.552 1196.01 432.28 1196.55 429.336L1200.1 429.576ZM1204.97 423.048C1205.45 420.552 1206.59 418.584 1208.38 417.144C1210.17 415.704 1212.41 414.984 1215.1 414.984C1218.33 414.984 1220.79 415.896 1222.49 417.72C1224.22 419.544 1225.08 422.184 1225.08 425.64V436.104C1225.08 436.776 1225.23 437.272 1225.51 437.592C1225.8 437.912 1226.23 438.072 1226.81 438.072H1227.82V441H1226.33H1226.09C1225.26 440.968 1224.52 440.824 1223.88 440.568C1223.24 440.28 1222.75 439.816 1222.39 439.176C1222.04 438.536 1221.87 437.672 1221.87 436.584C1221.19 438.056 1220.11 439.256 1218.6 440.184C1217.13 441.08 1215.4 441.544 1213.42 441.576C1210.83 441.576 1208.7 440.936 1207.03 439.656C1205.37 438.344 1204.54 436.616 1204.54 434.472C1204.54 432.872 1204.92 431.592 1205.69 430.632C1206.49 429.64 1207.55 428.872 1208.86 428.328C1210.17 427.784 1211.83 427.32 1213.85 426.936L1221.82 425.448C1221.79 422.92 1221.23 421.064 1220.14 419.88C1219.05 418.696 1217.37 418.104 1215.1 418.104C1213.31 418.104 1211.83 418.552 1210.68 419.448C1209.53 420.344 1208.78 421.64 1208.43 423.336L1204.97 423.048ZM1207.95 434.472C1207.95 435.752 1208.46 436.792 1209.48 437.592C1210.54 438.36 1212.03 438.712 1213.95 438.648C1215.48 438.648 1216.86 438.28 1218.07 437.544C1219.29 436.808 1220.23 435.768 1220.91 434.424C1221.61 433.048 1221.95 431.432 1221.91 429.576V428.328L1215.39 429.48L1214.38 429.672C1212.94 429.928 1211.77 430.2 1210.87 430.488C1210.01 430.776 1209.31 431.24 1208.76 431.88C1208.22 432.52 1207.95 433.384 1207.95 434.472ZM1237.06 409.8V434.76C1237.06 435.848 1237.33 436.68 1237.88 437.256C1238.42 437.832 1239.22 438.12 1240.28 438.12H1243.64V441H1240.28C1238.23 441 1236.64 440.456 1235.52 439.368C1234.4 438.248 1233.84 436.712 1233.84 434.76V409.8H1237.06ZM1243.68 415.56V418.488H1229.91V415.56H1243.68ZM1247.19 428.28C1247.19 425.656 1247.64 423.352 1248.54 421.368C1249.47 419.352 1250.78 417.784 1252.47 416.664C1254.2 415.544 1256.23 414.984 1258.57 414.984C1260.65 414.984 1262.49 415.48 1264.09 416.472C1265.72 417.432 1267.02 418.888 1267.98 420.84C1268.94 422.792 1269.45 425.144 1269.51 427.896L1269.56 429.24H1250.6C1250.76 432.152 1251.53 434.424 1252.91 436.056C1254.31 437.656 1256.2 438.456 1258.57 438.456C1260.14 438.456 1261.55 438.04 1262.79 437.208C1264.04 436.344 1264.97 435.16 1265.58 433.656L1269.08 433.896C1268.35 436.232 1267.02 438.104 1265.1 439.512C1263.18 440.888 1261 441.576 1258.57 441.576C1256.23 441.576 1254.2 441.016 1252.47 439.896C1250.78 438.776 1249.47 437.224 1248.54 435.24C1247.64 433.224 1247.19 430.904 1247.19 428.28ZM1266.01 426.36C1265.72 423.608 1264.91 421.544 1263.56 420.168C1262.25 418.792 1260.59 418.104 1258.57 418.104C1256.36 418.104 1254.57 418.824 1253.19 420.264C1251.82 421.704 1250.99 423.736 1250.7 426.36H1266.01ZM1278.42 415.56L1278.62 422.712L1278.18 422.28C1278.57 420.008 1279.3 418.328 1280.39 417.24C1281.48 416.12 1283 415.56 1284.95 415.56H1287.16V418.44H1284.95C1283.64 418.44 1282.52 418.744 1281.59 419.352C1280.7 419.928 1280.01 420.776 1279.53 421.896C1279.08 422.984 1278.86 424.296 1278.86 425.832V441H1275.64V415.56H1278.42ZM1296.62 415.56V441H1293.4V415.56H1296.62ZM1296.72 407.304V411.528H1293.31V407.304H1296.72ZM1306.88 415.56L1307.07 422.184L1306.64 421.8C1306.99 419.56 1307.94 417.864 1309.47 416.712C1311.01 415.56 1312.88 414.984 1315.09 414.984C1317.84 414.984 1319.95 415.88 1321.42 417.672C1322.9 419.464 1323.63 421.784 1323.63 424.632V441H1320.37V425.784C1320.37 424.088 1320.16 422.664 1319.74 421.512C1319.36 420.328 1318.72 419.432 1317.82 418.824C1316.93 418.216 1315.79 417.912 1314.42 417.912C1312.18 417.912 1310.4 418.616 1309.09 420.024C1307.81 421.4 1307.17 423.32 1307.17 425.784V441H1303.95V415.56H1306.88ZM1340.08 439.704C1337.9 439.704 1335.98 439.192 1334.32 438.168C1332.65 437.144 1331.36 435.688 1330.43 433.8C1329.5 431.912 1329.04 429.752 1329.04 427.32C1329.04 424.888 1329.49 422.744 1330.38 420.888C1331.31 419.032 1332.61 417.592 1334.27 416.568C1335.93 415.544 1337.85 415.032 1340.03 415.032C1341.82 415.032 1343.44 415.512 1344.88 416.472C1346.32 417.432 1347.34 418.68 1347.95 420.216V415.56H1351.07V438.408C1351.07 440.616 1350.62 442.488 1349.73 444.024C1348.83 445.592 1347.55 446.776 1345.89 447.576C1344.25 448.376 1342.37 448.776 1340.22 448.776C1338.43 448.776 1336.8 448.456 1335.33 447.816C1333.85 447.208 1332.64 446.328 1331.68 445.176C1330.75 444.056 1330.16 442.776 1329.9 441.336L1333.31 441.144C1333.69 442.52 1334.49 443.624 1335.71 444.456C1336.93 445.288 1338.43 445.704 1340.22 445.704C1342.59 445.704 1344.45 445.112 1345.79 443.928C1347.17 442.776 1347.85 441.16 1347.85 439.08V434.664C1347.15 436.2 1346.09 437.432 1344.69 438.36C1343.28 439.256 1341.74 439.704 1340.08 439.704ZM1332.45 427.32C1332.45 430.168 1333.13 432.424 1334.51 434.088C1335.92 435.752 1337.82 436.584 1340.22 436.584C1341.73 436.584 1343.05 436.216 1344.21 435.48C1345.39 434.712 1346.3 433.624 1346.94 432.216C1347.58 430.808 1347.9 429.176 1347.9 427.32C1347.93 425.464 1347.63 423.848 1346.99 422.472C1346.38 421.096 1345.49 420.04 1344.3 419.304C1343.15 418.536 1341.79 418.152 1340.22 418.152C1337.82 418.152 1335.92 418.984 1334.51 420.648C1333.13 422.28 1332.45 424.504 1332.45 427.32Z" fill="#262626"/>
<path d="M616.96 369.664C616.96 372.736 616.192 374.656 614.656 375.424C613.12 376.448 611.328 376.96 609.28 376.96C607.744 376.96 605.696 376.704 603.136 376.192C601.856 375.936 599.936 374.656 597.376 372.352C595.072 370.304 592.512 367.872 589.696 365.056C586.624 361.984 583.296 358.528 579.712 354.688L560.512 332.8C560 333.568 558.848 335.232 557.056 337.792C555.264 340.096 552.96 342.656 550.144 345.472C547.584 348.032 544.512 350.336 540.928 352.384C537.344 354.432 533.504 355.456 529.408 355.456C526.592 355.456 523.136 354.56 519.04 352.768C515.2 351.232 511.232 348.928 507.136 345.856C503.04 342.784 498.944 339.072 494.848 334.72C491.008 330.368 487.68 325.504 484.864 320.128C481.28 313.216 478.208 306.048 475.648 298.624C473.344 290.944 471.424 283.264 469.888 275.584C468.608 267.904 467.712 260.352 467.2 252.928C466.688 245.248 466.432 238.08 466.432 231.424C466.432 221.952 466.816 215.168 467.584 211.072C468.608 206.976 471.68 204.928 476.8 204.928C478.848 204.928 480.384 205.696 481.408 207.232C482.688 208.512 483.328 209.92 483.328 211.456C483.328 225.792 484.352 240.384 486.4 255.232C488.448 269.824 491.392 283.264 495.232 295.552C499.072 307.584 503.808 317.44 509.44 325.12C515.328 332.8 522.112 336.64 529.792 336.64C533.12 336.64 536.064 335.488 538.624 333.184C541.184 330.624 543.232 327.68 544.768 324.352C546.56 321.024 547.84 317.824 548.608 314.752C549.376 311.68 549.888 309.376 550.144 307.84C548.608 304.256 546.944 299.52 545.152 293.632C543.616 287.488 542.208 280.832 540.928 273.664C539.648 266.496 538.624 259.072 537.856 251.392C537.088 243.712 536.704 236.288 536.704 229.12C536.704 218.112 536.704 209.152 536.704 202.24C536.96 195.072 537.472 189.568 538.24 185.728C539.008 181.632 540.16 178.944 541.696 177.664C543.232 176.128 545.408 175.36 548.224 175.36C549.76 175.36 551.168 175.872 552.448 176.896C553.984 177.664 555.136 178.56 555.904 179.584C556.928 180.608 557.696 181.632 558.208 182.656C558.72 183.68 558.976 184.32 558.976 184.576C558.976 185.6 558.72 186.496 558.208 187.264C557.696 187.776 557.44 188.544 557.44 189.568C557.44 191.616 557.696 194.56 558.208 198.4C558.976 202.24 559.744 206.208 560.512 210.304C562.048 218.496 563.456 227.84 564.736 238.336C566.272 248.832 567.04 260.992 567.04 274.816V290.944C567.04 292.992 568.064 297.216 570.112 303.616C572.416 309.76 577.408 318.848 585.088 330.88C590.208 339.072 594.944 345.6 599.296 350.464C603.904 355.328 607.616 359.168 610.432 361.984C612.224 363.52 613.76 364.928 615.04 366.208C616.32 367.744 616.96 368.896 616.96 369.664ZM558.208 241.408C557.952 239.872 557.568 237.952 557.056 235.648C556.544 233.344 555.904 231.04 555.136 228.736C554.624 226.432 554.112 224.512 553.6 222.976C553.344 221.44 553.216 220.672 553.216 220.672C553.216 223.488 553.216 226.944 553.216 231.04C553.472 234.88 553.728 238.848 553.984 242.944C554.496 246.784 555.008 250.624 555.52 254.464C556.032 258.048 556.672 261.12 557.44 263.68C557.44 261.888 557.568 260.096 557.824 258.304C557.824 256.768 557.824 255.104 557.824 253.312C558.08 251.264 558.208 249.216 558.208 247.168V241.408ZM731.935 304.768C731.935 306.304 731.423 307.84 730.399 309.376C729.375 310.912 728.095 312.32 726.559 313.6C725.279 314.88 723.743 316.032 721.951 317.056C720.415 317.824 719.007 318.208 717.727 318.208C713.375 318.208 707.743 317.312 700.831 315.52C694.175 313.472 688.799 310.4 684.703 306.304C680.351 301.952 676.511 296.832 673.183 290.944C669.855 284.8 666.143 275.84 662.047 264.064C659.231 275.328 655.903 286.464 652.063 297.472C648.479 308.48 642.591 318.592 634.399 327.808C633.887 328.32 633.119 328.576 632.095 328.576C630.303 328.576 628.383 327.68 626.335 325.888C624.287 324.096 623.263 322.304 623.263 320.512C623.263 318.72 623.007 314.624 622.495 308.224C622.239 301.568 621.855 294.272 621.343 286.336C620.831 278.144 620.319 269.952 619.807 261.76C619.551 253.312 619.423 246.4 619.423 241.024C619.423 238.464 619.551 235.136 619.807 231.04C620.063 226.688 620.831 222.976 622.111 219.904C622.367 219.392 623.263 218.368 624.799 216.832C626.591 215.296 628.511 214.528 630.559 214.528C632.351 214.528 633.375 215.68 633.631 217.984C633.887 220.288 634.015 222.848 634.015 225.664V286.336C634.015 287.616 634.143 289.408 634.399 291.712C634.911 294.016 635.551 295.68 636.319 296.704C639.135 290.56 641.695 283.392 643.999 275.2C646.559 266.752 648.991 258.816 651.295 251.392C653.599 243.712 655.903 237.312 658.207 232.192C660.511 226.816 662.815 224.128 665.119 224.128C667.679 224.128 669.727 224.64 671.263 225.664C672.799 226.688 674.079 228.736 675.103 231.808C676.383 239.232 677.407 245.888 678.175 251.776C678.943 257.408 679.839 262.528 680.863 267.136C682.143 271.744 683.807 276.096 685.855 280.192C688.159 284.032 691.231 287.616 695.071 290.944C698.655 294.272 702.623 296.704 706.975 298.24C711.583 299.776 715.551 300.544 718.879 300.544C720.415 300.544 722.079 300.288 723.871 299.776C725.663 299.008 726.943 298.624 727.711 298.624C728.735 298.624 729.631 299.52 730.399 301.312C731.423 303.104 731.935 304.256 731.935 304.768ZM862.327 282.112C862.327 284.672 861.943 287.36 861.175 290.176C860.407 292.736 859.639 294.912 858.871 296.704C858.359 297.472 855.927 300.16 851.575 304.768C847.479 309.12 842.231 313.728 835.831 318.592C829.687 323.456 822.647 327.936 814.711 332.032C807.031 335.872 799.607 337.792 792.439 337.792C788.087 337.792 783.607 337.024 778.999 335.488C774.647 333.952 770.551 331.52 766.711 328.192C762.871 324.608 759.671 320.256 757.111 315.136C754.807 310.016 753.655 303.744 753.655 296.32C753.655 284.032 755.703 272.896 759.799 262.912C763.895 252.928 767.991 244.992 772.087 239.104C773.879 236.288 776.183 233.472 778.999 230.656C782.071 227.584 785.015 224.896 787.831 222.592C790.647 220.032 793.207 217.984 795.511 216.448C798.071 214.912 799.863 214.144 800.887 214.144C803.191 214.144 805.239 214.784 807.031 216.064C809.079 217.344 810.103 218.624 810.103 219.904C810.103 221.952 809.463 223.744 808.183 225.28C807.159 226.56 805.623 228.096 803.575 229.888C801.527 231.424 799.095 233.6 796.279 236.416C793.463 238.976 790.519 242.432 787.447 246.784C781.303 255.232 776.695 263.936 773.623 272.896C770.807 281.6 769.399 289.28 769.399 295.936C769.399 302.592 771.831 307.968 776.695 312.064C781.815 315.904 787.063 317.824 792.439 317.824C802.167 317.824 810.743 315.648 818.167 311.296C825.847 306.944 832.375 302.08 837.751 296.704C843.127 291.328 847.479 286.464 850.807 282.112C854.135 277.76 856.567 275.584 858.103 275.584C860.919 275.584 862.327 277.76 862.327 282.112ZM944.182 340.864C944.182 342.912 943.414 344.448 941.878 345.472C940.342 346.496 938.55 347.008 936.502 347.008C934.198 347.008 931.766 344.832 929.206 340.48C926.902 336.128 924.598 330.624 922.294 323.968C919.99 317.312 917.814 310.144 915.766 302.464C913.718 294.528 911.926 287.232 910.39 280.576C908.854 273.664 907.574 267.904 906.55 263.296C905.782 258.688 905.398 256.128 905.398 255.616C905.398 254.592 904.886 251.904 903.862 247.552C903.094 243.2 901.942 236.416 900.406 227.2C899.126 217.984 897.59 206.08 895.798 191.488C894.262 176.64 892.598 158.336 890.806 136.576C890.806 134.272 891.19 131.328 891.958 127.744C892.726 124.16 894.518 122.368 897.334 122.368C900.918 122.368 903.606 124.8 905.398 129.664C907.446 134.528 908.982 140.544 910.006 147.712C911.286 154.88 912.182 162.432 912.694 170.368C913.206 178.048 913.846 184.832 914.614 190.72C915.638 198.912 916.534 206.336 917.302 212.992C918.326 219.648 919.222 226.304 919.99 232.96C921.014 239.36 922.166 246.144 923.446 253.312C924.982 260.48 926.774 268.416 928.822 277.12L944.182 340.864ZM1080.86 311.68C1081.12 312.192 1081.25 312.96 1081.25 313.984C1081.25 315.52 1080.09 317.824 1077.79 320.896C1077.02 321.92 1075.36 323.584 1072.8 325.888C1070.24 328.192 1066.78 330.496 1062.43 332.8C1058.08 335.104 1052.7 337.152 1046.3 338.944C1040.16 340.736 1032.86 341.632 1024.41 341.632C1018.53 341.632 1012.77 340.352 1007.13 337.792C1001.5 334.976 996.51 331.008 992.158 325.888C987.806 320.512 984.222 313.984 981.406 306.304C978.59 298.368 977.182 289.152 977.182 278.656C977.182 268.672 978.462 259.328 981.022 250.624C983.582 241.92 986.782 234.24 990.622 227.584C994.718 220.928 999.198 215.68 1004.06 211.84C1008.93 208 1013.66 206.08 1018.27 206.08C1022.37 206.08 1026.46 206.976 1030.56 208.768C1034.91 210.304 1038.75 212.352 1042.08 214.912C1045.66 217.472 1048.48 220.416 1050.53 223.744C1052.57 226.816 1053.6 230.016 1053.6 233.344C1053.6 237.184 1051.81 241.152 1048.22 245.248C1044.89 249.344 1040.8 253.184 1035.93 256.768C1031.07 260.096 1026.21 262.912 1021.34 265.216C1016.48 267.264 1012.64 268.288 1009.82 268.288C1008.29 268.288 1006.88 267.648 1005.6 266.368C1004.57 264.832 1004.06 263.04 1004.06 260.992C1004.06 257.408 1005.6 254.592 1008.67 252.544C1012 250.496 1015.58 248.704 1019.42 247.168C1023.26 245.376 1026.72 243.328 1029.79 241.024C1033.12 238.72 1034.78 235.52 1034.78 231.424C1034.78 230.912 1034.14 229.632 1032.86 227.584C1031.58 225.536 1028.13 224.512 1022.49 224.512C1019.93 224.512 1016.99 226.048 1013.66 229.12C1010.33 231.936 1007.13 235.904 1004.06 241.024C1000.99 245.888 998.43 251.776 996.382 258.688C994.334 265.344 993.31 272.64 993.31 280.576C993.31 287.232 994.462 293.248 996.766 298.624C999.326 304 1002.53 308.608 1006.37 312.448C1010.21 316.032 1014.69 318.848 1019.81 320.896C1024.93 322.944 1030.17 323.968 1035.55 323.968C1039.39 323.968 1043.49 323.2 1047.84 321.664C1052.45 319.872 1056.67 318.08 1060.51 316.288C1064.61 314.24 1068.06 312.448 1070.88 310.912C1073.95 309.12 1075.87 308.224 1076.64 308.224C1077.41 308.224 1078.17 308.608 1078.94 309.376C1079.97 310.144 1080.61 310.912 1080.86 311.68ZM1173.65 265.984C1173.65 268.544 1171.47 271.104 1167.12 273.664C1163.03 275.968 1158.29 278.016 1152.91 279.808C1147.54 281.6 1142.42 283.136 1137.55 284.416C1132.69 285.44 1129.62 285.952 1128.34 285.952C1123.73 285.952 1120.53 285.696 1118.74 285.184C1117.2 284.672 1115.79 283.008 1114.51 280.192C1113.75 279.168 1112.98 278.016 1112.21 276.736C1111.44 275.2 1111.06 274.048 1111.06 273.28C1111.06 272.256 1111.19 271.616 1111.44 271.36C1111.95 271.104 1112.98 270.976 1114.51 270.976C1117.33 270.976 1121.43 270.336 1126.8 269.056C1132.43 267.776 1137.94 266.368 1143.31 264.832C1148.95 263.296 1154.07 261.888 1158.67 260.608C1163.28 259.328 1166.1 258.688 1167.12 258.688C1168.4 258.688 1169.81 259.712 1171.35 261.76C1172.88 263.552 1173.65 264.96 1173.65 265.984ZM1418.2 141.184C1418.2 142.976 1417.44 144.512 1415.9 145.792C1414.62 146.816 1413.34 147.328 1412.06 147.328C1409.76 147.328 1406.04 147.584 1400.92 148.096C1396.06 148.608 1390.68 149.248 1384.79 150.016C1379.16 150.528 1373.53 151.168 1367.9 151.936C1362.52 152.448 1358.17 152.96 1354.84 153.472C1353.82 153.472 1351.64 153.6 1348.32 153.856C1345.24 154.112 1341.66 154.496 1337.56 155.008C1333.72 155.264 1329.76 155.648 1325.66 156.16C1321.82 156.672 1318.75 157.056 1316.44 157.312C1313.63 157.824 1309.53 158.72 1304.16 160C1298.78 161.28 1293.92 162.56 1289.56 163.84C1288.03 164.352 1286.62 164.736 1285.34 164.992C1284.06 165.248 1283.04 165.504 1282.27 165.76C1281.24 166.016 1280.35 166.272 1279.58 166.528L1300.32 239.872C1301.08 242.176 1302.36 245.888 1304.16 251.008C1305.95 256.128 1308 261.76 1310.3 267.904C1312.86 274.048 1315.42 280.448 1317.98 287.104C1320.8 293.76 1323.23 299.904 1325.28 305.536C1326.56 308.864 1327.96 312.96 1329.5 317.824C1331.04 322.688 1332.44 327.68 1333.72 332.8C1335 337.664 1336.03 342.144 1336.8 346.24C1337.82 350.336 1338.33 353.152 1338.33 354.688C1338.33 358.272 1337.31 361.984 1335.26 365.824C1333.21 369.92 1330.52 371.968 1327.2 371.968C1324.12 371.968 1322.59 369.792 1322.59 365.44V362.752C1322.59 361.984 1322.59 361.088 1322.59 360.064C1322.84 359.04 1322.97 357.888 1322.97 356.608C1322.97 354.56 1322.2 351.104 1320.67 346.24C1319.13 341.12 1317.21 335.488 1314.91 329.344C1312.6 322.944 1310.04 316.288 1307.23 309.376C1304.67 302.208 1302.11 295.552 1299.55 289.408C1297.24 283.008 1295.2 277.632 1293.4 273.28C1291.61 268.672 1290.46 265.6 1289.95 264.064C1289.18 262.016 1288.16 259.072 1286.88 255.232C1285.85 251.392 1284.57 247.04 1283.04 242.176C1281.5 237.312 1279.84 232.192 1278.04 226.816C1276.51 221.184 1274.97 215.68 1273.44 210.304C1269.6 197.76 1265.37 184.064 1260.76 169.216C1259.48 169.472 1255.26 170.112 1248.09 171.136C1241.18 171.904 1233.37 172.8 1224.67 173.824C1215.96 174.848 1207.64 175.872 1199.71 176.896C1191.77 177.664 1186.39 178.048 1183.58 178.048C1177.18 178.048 1173.08 177.024 1171.29 174.976C1169.5 172.928 1168.47 170.368 1168.22 167.296C1168.22 165.248 1168.73 163.2 1169.75 161.152C1170.78 158.848 1172.19 157.696 1173.98 157.696C1176.03 157.696 1177.69 158.08 1178.97 158.848C1179.99 159.36 1181.4 159.616 1183.19 159.616C1183.71 159.616 1186.27 159.36 1190.88 158.848C1195.74 158.336 1201.37 157.696 1207.77 156.928C1214.43 156.16 1221.21 155.392 1228.12 154.624C1235.29 153.856 1241.56 153.216 1246.94 152.704C1248.22 152.704 1249.5 152.704 1250.78 152.704C1252.32 152.448 1253.72 152.192 1255 151.936C1256.28 151.68 1257.56 151.552 1258.84 151.552C1258.84 150.784 1259.23 149.12 1260 146.56C1261.02 143.744 1262.04 142.336 1263.07 142.336C1265.63 142.336 1267.68 143.36 1269.21 145.408C1271 147.2 1272.54 148.48 1273.82 149.248C1275.61 148.992 1278.3 148.48 1281.88 147.712C1285.72 146.688 1289.69 145.792 1293.79 145.024C1298.14 144.256 1302.24 143.616 1306.08 143.104C1310.17 142.336 1313.63 141.824 1316.44 141.568L1361.37 138.88C1365.21 138.624 1369.56 138.368 1374.43 138.112C1379.55 137.6 1384.54 137.088 1389.4 136.576C1394.27 136.064 1398.49 135.68 1402.08 135.424C1405.66 134.912 1408.09 134.656 1409.37 134.656C1411.68 134.912 1413.72 135.68 1415.52 136.96C1417.31 138.24 1418.2 139.648 1418.2 141.184Z" fill="#262626"/>
</svg>
